<?xml version="1.0" standalone="no"?>
<!DOCTYPE svg PUBLIC "-//W3C//DTD SVG 20010904//EN"
 "http://www.w3.org/TR/2001/REC-SVG-20010904/DTD/svg10.dtd">
<svg version="1.0" xmlns="http://www.w3.org/2000/svg"
 width="700.000000pt" height="700.000000pt" viewBox="0 0 700.000000 700.000000"
 preserveAspectRatio="xMidYMid meet">
<metadata>
Created by potrace 1.14, written by Peter Selinger 2001-2017
</metadata>
<g transform="translate(0.000000,700.000000) scale(0.100000,-0.100000)"
fill="#000000" stroke="none">
<path d="M3329 4666 c-2 -2 -62 -6 -134 -10 -71 -4 -148 -9 -170 -11 -117 -12
-196 -22 -245 -30 -14 -2 -45 -7 -70 -10 -37 -5 -110 -18 -165 -30 -5 -1 -28
-5 -50 -9 -124 -24 -439 -113 -523 -148 -15 -6 -29 -12 -32 -12 -19 -4 -142
-58 -232 -103 -456 -224 -698 -520 -683 -834 8 -161 77 -300 224 -452 65 -68
237 -207 254 -207 3 0 23 -12 44 -26 131 -90 489 -236 733 -300 173 -45 485
-101 660 -120 392 -40 840 -38 1175 7 44 5 96 12 115 15 19 2 51 7 70 10 19 3
46 8 60 10 242 40 585 138 800 229 67 28 249 121 310 157 123 75 304 232 364
318 14 19 29 40 34 46 5 6 26 44 45 85 98 204 78 423 -56 618 -74 109 -236
254 -387 348 -59 36 -259 137 -351 177 -89 38 -399 135 -519 161 -225 50 -518
93 -745 110 -100 7 -520 16 -526 11z m400 -157 c130 -30 321 -118 389 -179 10
-8 43 -36 74 -63 171 -144 305 -400 334 -642 8 -64 8 -197 1 -255 -44 -335
-261 -643 -562 -793 -64 -32 -171 -73 -220 -83 -94 -21 -138 -24 -261 -23
-156 1 -260 22 -397 79 -179 74 -378 246 -468 403 -67 116 -119 245 -134 329
-49 275 -7 531 121 744 108 180 276 332 457 414 69 31 184 68 237 76 19 3 37
8 40 10 2 3 72 4 155 3 111 0 174 -6 234 -20z m611 -101 c171 -55 346 -137
476 -224 46 -30 84 -57 84 -60 0 -2 -93 -4 -207 -3 l-208 0 -50 70 c-48 67
-163 185 -235 241 l-35 27 55 -15 c30 -8 84 -25 120 -36z m-1572 0 c-69 -54
-148 -136 -211 -220 l-50 -68 -203 0 c-112 0 -204 2 -204 4 0 3 37 29 83 58
170 110 268 156 487 229 150 50 165 50 98 -3z m-570 -61 c-9 -7 -50 -33 -90
-59 -40 -25 -105 -74 -145 -107 l-72 -61 -128 0 -128 0 88 46 c119 61 207 98
357 150 135 47 144 50 118 31z m2713 -26 c138 -48 250 -95 366 -155 l88 -46
-128 0 -128 0 -73 61 c-41 34 -113 88 -162 120 -49 33 -86 59 -82 59 3 0 57
-18 119 -39z m-3161 -375 c-39 -57 -87 -155 -111 -225 -11 -31 -19 -57 -18
-59 0 -1 -2 -20 -6 -42 -8 -46 24 -41 -268 -41 -99 0 -181 2 -183 4 -9 8 35
119 68 176 18 30 72 94 119 143 l86 88 171 0 171 0 -29 -44z m681 27 c-14 -27
-60 -168 -66 -204 -3 -18 -8 -36 -11 -41 -3 -4 -8 -38 -11 -75 -3 -38 -7 -69
-8 -71 -2 -2 -339 -4 -533 -2 l-64 0 7 33 c21 96 74 212 135 293 68 91 42 84
316 84 230 0 244 -1 235 -17z m2640 -5 c38 -45 97 -134 126 -193 28 -55 67
-184 59 -192 -2 -2 -137 -5 -300 -6 -257 -2 -296 0 -297 13 -4 107 -41 255
-94 383 -7 16 9 17 240 17 244 0 247 0 266 -22z m578 -66 c47 -49 101 -113
119 -143 32 -54 77 -168 69 -175 -2 -2 -87 -4 -188 -5 -285 -1 -257 -5 -264
39 -17 100 -74 238 -137 330 l-29 42 172 0 173 0 85 -88z m-4038 -474 c0 -13
2 -32 4 -43 2 -11 7 -36 10 -55 10 -52 53 -158 91 -221 19 -31 34 -61 34 -65
0 -5 -77 -9 -170 -8 l-171 1 -45 44 c-101 98 -185 236 -200 328 l-6 40 226 1
226 1 1 -23z m720 20 c0 -2 2 -23 5 -48 10 -91 37 -217 60 -279 13 -35 24 -68
24 -75 0 -8 -65 -11 -233 -9 -127 0 -240 1 -249 2 -35 2 -134 159 -173 274 -8
25 -18 66 -21 91 l-7 46 297 0 c163 0 296 -1 297 -2z m2925 -42 c-7 -52 -35
-135 -66 -196 -31 -63 -109 -170 -123 -171 -7 0 -121 -2 -254 -2 -273 -2 -250
-10 -216 73 20 50 51 185 59 261 3 35 8 67 11 72 2 4 137 7 299 7 l296 0 -6
-44z m579 2 c-16 -94 -78 -199 -180 -307 l-62 -64 -164 -1 c-90 -1 -170 0
-176 2 -9 3 -7 12 8 33 44 62 99 198 116 287 l18 92 223 0 224 0 -7 -42z
m-3925 -542 c69 -63 127 -108 220 -171 94 -63 91 -62 -90 2 -115 41 -380 163
-424 196 -17 12 -2 14 115 14 l134 0 45 -41z m612 -5 c64 -96 157 -197 243
-266 33 -26 62 -49 64 -51 2 -2 -30 6 -70 18 -212 59 -425 153 -574 254 -149
101 -159 91 89 91 l217 0 31 -46z m2408 42 c0 -8 -23 -25 -119 -89 -146 -98
-369 -197 -571 -252 l-75 -21 35 27 c73 56 174 160 231 237 33 44 63 85 68 91
9 11 431 17 431 7z m460 -3 c0 -9 -193 -109 -280 -145 -79 -33 -264 -99 -305
-109 -22 -5 -15 2 29 28 88 54 174 117 241 179 l60 54 127 0 c71 0 128 -3 128
-7z"/>
<path d="M3735 3886 c-121 -30 -232 -125 -274 -234 -77 -200 7 -414 199 -506
59 -28 74 -31 165 -31 91 0 106 3 165 31 71 34 138 94 176 160 93 158 60 365
-78 490 -91 81 -237 119 -353 90z m220 -90 c167 -79 236 -276 153 -439 -120
-238 -445 -236 -569 5 -16 31 -24 67 -27 125 -4 75 -2 87 26 147 78 167 258
237 417 162z"/>
<path d="M3649 3691 c-5 -168 -2 -374 6 -379 5 -3 29 -6 52 -7 46 0 48 3 43
77 -3 53 7 65 52 63 23 -1 43 -6 45 -11 2 -5 20 -35 41 -68 38 -59 38 -59 90
-60 29 -1 52 2 52 7 0 6 -18 38 -40 73 -22 35 -40 65 -40 68 0 2 16 20 36 40
35 35 36 38 32 96 -8 105 -37 122 -230 125 l-138 2 -1 -26z m237 -66 c40 -9
40 -75 1 -92 -18 -8 -95 -10 -129 -4 -9 1 -11 95 -3 102 5 6 99 1 131 -6z"/>
<path d="M2780 3725 c-1 -221 -1 -340 -1 -487 l1 -136 223 3 c123 1 237 8 256
14 93 29 152 111 147 204 -2 29 -10 66 -19 83 -19 36 -72 84 -93 84 -21 0 -18
7 24 45 45 40 62 86 55 151 -5 59 -24 96 -65 128 -54 40 -108 48 -325 50
l-203 1 0 -140z m397 -5 c45 -29 51 -105 12 -145 -17 -18 -33 -20 -136 -20
l-117 0 -1 85 c-1 47 0 88 2 91 6 13 218 3 240 -11z m20 -305 c67 -28 65 -142
-3 -171 -44 -19 -250 -20 -256 -1 -4 10 -3 154 1 180 2 13 224 6 258 -8z"/>
</g>
</svg>
